<svg xmlns="http://www.w3.org/2000/svg" viewBox="0 0 640 240" width="640" height="240"><defs><linearGradient id="ia" x1="0" y1="0" x2="1" y2="1"><stop offset="0" stop-color="#FF1A35"/><stop offset="1" stop-color="#D3133F"/></linearGradient><linearGradient id="is" x1="0" y1="0" x2="0" y2="1"><stop offset="0" stop-color="#FFFFFF" stop-opacity="0.26"/><stop offset="0.55" stop-color="#FFFFFF" stop-opacity="0"/></linearGradient><linearGradient id="ip" x1="0" y1="0" x2="0" y2="1"><stop offset="0" stop-color="#0E0607"/><stop offset="1" stop-color="#050203"/></linearGradient><filter id="if" x="-15%" y="-15%" width="130%" height="140%" color-interpolation-filters="sRGB"><feDropShadow dx="0" dy="4" stdDeviation="7" flood-color="#000000" flood-opacity="0.45"/></filter></defs><rect x="0.5" y="0.5" width="639" height="239" rx="20" fill="#1A1013" stroke="#33222A"/><g transform="translate(24 28)"><rect width="260" height="184" rx="14" fill="#120A0C" filter="url(#if)"/><rect x="0.5" y="0.5" width="259" height="183" rx="13.5" fill="none" stroke="#3B272C"/><g><rect x="12" y="10" width="22" height="7" rx="3.5" fill="#3A2A2E"/><rect x="88" y="10" width="84" height="7" rx="3.5" fill="#3A2A2E"/><rect x="12" y="25" width="152" height="86" rx="7" fill="url(#ip)" stroke="#2E1E22"/><rect x="20" y="105" width="136" height="2" rx="1" fill="#33222A"/><rect x="20" y="81" width="32" height="18" rx="3" fill="#3E2A30"/><rect x="58" y="81" width="32" height="18" rx="3" fill="#3E2A30"/><rect x="96" y="81" width="32" height="18" rx="3" fill="#3E2A30"/><rect x="134" y="81" width="18" height="18" rx="5" fill="#3E2A30"/><rect x="12" y="117" width="104" height="6" rx="3" fill="#4F3A40"/><rect x="12" y="129" width="152" height="16" rx="4" fill="#3A2A2E"/><rect x="12" y="152" width="52" height="6" rx="3" fill="#3A2A2E"/><rect x="12" y="161" width="152" height="6" rx="3" fill="#3A2A2E"/><rect x="12" y="170" width="132" height="6" rx="3" fill="#3A2A2E"/><rect x="168" y="21" width="84" height="148" rx="6" fill="#FF6B80" fill-opacity="0.08" stroke="#FF6B80" stroke-width="1.5" stroke-dasharray="4 3"/><rect x="172" y="25" width="36" height="20" rx="3" fill="url(#ia)"/><rect x="172" y="25" width="36" height="20" rx="3" fill="url(#is)"/><rect x="212" y="27" width="36" height="4" rx="2" fill="#D3133F" fill-opacity="0.45"/><rect x="212" y="34" width="24" height="4" rx="2" fill="#D3133F" fill-opacity="0.45"/><rect x="172" y="49" width="36" height="20" rx="3" fill="url(#ia)"/><rect x="172" y="49" width="36" height="20" rx="3" fill="url(#is)"/><rect x="212" y="51" width="36" height="4" rx="2" fill="#D3133F" fill-opacity="0.45"/><rect x="212" y="58" width="24" height="4" rx="2" fill="#D3133F" fill-opacity="0.45"/><rect x="172" y="73" width="36" height="20" rx="3" fill="url(#ia)"/><rect x="172" y="73" width="36" height="20" rx="3" fill="url(#is)"/><rect x="212" y="75" width="36" height="4" rx="2" fill="#D3133F" fill-opacity="0.45"/><rect x="212" y="82" width="24" height="4" rx="2" fill="#D3133F" fill-opacity="0.45"/><rect x="172" y="97" width="36" height="20" rx="3" fill="url(#ia)"/><rect x="172" y="97" width="36" height="20" rx="3" fill="url(#is)"/><rect x="212" y="99" width="36" height="4" rx="2" fill="#D3133F" fill-opacity="0.45"/><rect x="212" y="106" width="24" height="4" rx="2" fill="#D3133F" fill-opacity="0.45"/><rect x="172" y="121" width="36" height="20" rx="3" fill="url(#ia)"/><rect x="172" y="121" width="36" height="20" rx="3" fill="url(#is)"/><rect x="212" y="123" width="36" height="4" rx="2" fill="#D3133F" fill-opacity="0.45"/><rect x="212" y="130" width="24" height="4" rx="2" fill="#D3133F" fill-opacity="0.45"/><rect x="172" y="145" width="36" height="20" rx="3" fill="url(#ia)"/><rect x="172" y="145" width="36" height="20" rx="3" fill="url(#is)"/><rect x="212" y="147" width="36" height="4" rx="2" fill="#D3133F" fill-opacity="0.45"/><rect x="212" y="154" width="24" height="4" rx="2" fill="#D3133F" fill-opacity="0.45"/><g transform="translate(252 21)"><circle r="11.5" fill="#120A0C"/><circle r="10" fill="url(#ia)"/><circle r="10" fill="url(#is)"/><path d="M-5.6 0C-3.8 -3.3 3.8 -3.3 5.6 0C3.8 3.3 -3.8 3.3 -5.6 0Z" fill="none" stroke="#FFFFFF" stroke-width="1.5" stroke-linejoin="round"/><circle r="1.6" fill="#FFFFFF"/><path d="M-4.6 -4.6L4.6 4.6" stroke="#D3133F" stroke-width="3.4" stroke-linecap="round"/><path d="M-4.6 -4.6L4.6 4.6" stroke="#FFFFFF" stroke-width="1.5" stroke-linecap="round"/></g></g></g><g transform="translate(320 120)"><circle r="18" fill="#3A1520"/><path d="M-7 0H7M1.5 -5.5L7 0L1.5 5.5" fill="none" stroke="#FF6B80" stroke-width="2.2" stroke-linecap="round" stroke-linejoin="round"/></g><g transform="translate(356 28)"><rect width="260" height="184" rx="14" fill="#120A0C" filter="url(#if)"/><rect x="0.5" y="0.5" width="259" height="183" rx="13.5" fill="none" stroke="#3B272C"/><g><rect x="12" y="10" width="22" height="7" rx="3.5" fill="#3A2A2E"/><rect x="88" y="10" width="84" height="7" rx="3.5" fill="#3A2A2E"/><rect x="54" y="25" width="152" height="86" rx="7" fill="url(#ip)" stroke="#2E1E22"/><rect x="62" y="105" width="136" height="2" rx="1" fill="#33222A"/><rect x="62" y="81" width="32" height="18" rx="3" fill="#3E2A30"/><rect x="100" y="81" width="32" height="18" rx="3" fill="#3E2A30"/><rect x="138" y="81" width="32" height="18" rx="3" fill="#3E2A30"/><rect x="176" y="81" width="18" height="18" rx="5" fill="#3E2A30"/><rect x="54" y="117" width="104" height="6" rx="3" fill="#4F3A40"/><rect x="54" y="129" width="152" height="16" rx="4" fill="#3A2A2E"/><rect x="54" y="152" width="52" height="6" rx="3" fill="#3A2A2E"/><rect x="54" y="161" width="152" height="6" rx="3" fill="#3A2A2E"/><rect x="54" y="170" width="132" height="6" rx="3" fill="#3A2A2E"/></g></g></svg>
