<svg xmlns="http://www.w3.org/2000/svg" viewBox="0 0 800 316" width="800" height="316" font-family="Segoe UI, Helvetica, Arial, sans-serif" role="img" aria-label="Before: a YouTube video page with related videos, description and comments. After: only the video and its title."><text x="20" y="24" font-size="15" font-weight="700" fill="#3f3f46">Before</text><text x="440" y="24" font-size="15" font-weight="700" fill="#3f3f46">After</text><rect x="20" y="36" width="340" height="240" rx="12" fill="#f4f4f5"/><rect x="28" y="44" width="324" height="10" rx="3" fill="#e4e4e7"/><rect x="32" y="62" width="200" height="112" rx="6" fill="#d4d4d8"/><path d="M124 102 v32 l28 -16 z" fill="#f4f4f5"/><rect x="32" y="182" width="150" height="8" rx="2" fill="#d4d4d8"/><circle cx="38" cy="203" r="5" fill="#d4d4d8"/><rect x="48" y="200" width="60" height="6" rx="2" fill="#d4d4d8"/><rect x="32" y="216" width="200" height="18" rx="4" fill="#e0002e"/><circle cx="36" cy="248" r="4" fill="#e0002e"/><rect x="44" y="246" width="120" height="5" rx="2" fill="#e0002e"/><circle cx="36" cy="262" r="4" fill="#e0002e"/><rect x="44" y="260" width="120" height="5" rx="2" fill="#e0002e"/><rect x="242" y="62" width="48" height="28" rx="3" fill="#e0002e"/><rect x="294" y="66" width="54" height="5" rx="2" fill="#e0002e"/><rect x="294" y="76" width="38" height="5" rx="2" fill="#e0002e"/><rect x="242" y="97" width="48" height="28" rx="3" fill="#e0002e"/><rect x="294" y="101" width="54" height="5" rx="2" fill="#e0002e"/><rect x="294" y="111" width="38" height="5" rx="2" fill="#e0002e"/><rect x="242" y="132" width="48" height="28" rx="3" fill="#e0002e"/><rect x="294" y="136" width="54" height="5" rx="2" fill="#e0002e"/><rect x="294" y="146" width="38" height="5" rx="2" fill="#e0002e"/><rect x="242" y="167" width="48" height="28" rx="3" fill="#e0002e"/><rect x="294" y="171" width="54" height="5" rx="2" fill="#e0002e"/><rect x="294" y="181" width="38" height="5" rx="2" fill="#e0002e"/><rect x="242" y="202" width="48" height="28" rx="3" fill="#e0002e"/><rect x="294" y="206" width="54" height="5" rx="2" fill="#e0002e"/><rect x="294" y="216" width="38" height="5" rx="2" fill="#e0002e"/><rect x="242" y="237" width="48" height="28" rx="3" fill="#e0002e"/><rect x="294" y="241" width="54" height="5" rx="2" fill="#e0002e"/><rect x="294" y="251" width="38" height="5" rx="2" fill="#e0002e"/><path d="M372 156 h40 m-10 -9 l10 9 l-10 9" stroke="#71717a" stroke-width="3" fill="none" stroke-linecap="round" stroke-linejoin="round"/><rect x="440" y="36" width="340" height="240" rx="12" fill="#f4f4f5"/><rect x="448" y="44" width="324" height="10" rx="3" fill="#e4e4e7"/><rect x="510" y="62" width="200" height="112" rx="6" fill="#d4d4d8"/><path d="M602 102 v32 l28 -16 z" fill="#f4f4f5"/><rect x="510" y="182" width="150" height="8" rx="2" fill="#d4d4d8"/><circle cx="516" cy="203" r="5" fill="#d4d4d8"/><rect x="526" y="200" width="60" height="6" rx="2" fill="#d4d4d8"/><rect x="20" y="294" width="12" height="12" rx="3" fill="#e0002e"/><text x="40" y="304" font-size="13" fill="#71717a">Related videos, description and comments, hidden by the extension</text></svg>
