<svg xmlns="http://www.w3.org/2000/svg" viewBox="16 16 96 96"><defs><linearGradient id="wine-g" x1="0" y1="0" x2="1" y2="1"><stop offset="0" stop-color="#FF1A35"/><stop offset="1" stop-color="#D3133F"/></linearGradient><linearGradient id="wine-sh" x1="0" y1="0" x2="0" y2="1"><stop offset="0" stop-color="#FFFFFF" stop-opacity="0.26"/><stop offset="0.55" stop-color="#FFFFFF" stop-opacity="0"/></linearGradient><linearGradient id="wine-tl" x1="0" y1="0" x2="0" y2="1"><stop offset="0" stop-color="#FFFFFF"/><stop offset="1" stop-color="#FBEFF0"/></linearGradient><linearGradient id="wine-td" x1="0" y1="0" x2="0" y2="1"><stop offset="0" stop-color="#3A0E18"/><stop offset="1" stop-color="#1E060C"/></linearGradient><linearGradient id="wine-ts" x1="0" y1="0" x2="0" y2="1"><stop offset="0" stop-color="#FFFFFF" stop-opacity="0.12"/><stop offset="0.5" stop-color="#FFFFFF" stop-opacity="0"/></linearGradient></defs><path d="M16 56C16 22.4 22.4 16 56 16H72C105.6 16 112 22.4 112 56V72C112 105.6 105.6 112 72 112H56C22.4 112 16 105.6 16 72Z" fill="url(#wine-td)"/><path d="M16 56C16 22.4 22.4 16 56 16H72C105.6 16 112 22.4 112 56V72C112 105.6 105.6 112 72 112H56C22.4 112 16 105.6 16 72Z" fill="url(#wine-ts)"/><path d="M16 56C16 22.4 22.4 16 56 16H72C105.6 16 112 22.4 112 56V72C112 105.6 105.6 112 72 112H56C22.4 112 16 105.6 16 72Z" fill="none" stroke="#FFFFFF" stroke-opacity="0.12" stroke-width="2"/><path d="M46.8 35.2C37.2 37 33 41.8 33 52V76C33 86.2 37.2 91 46.8 92.8M81.2 35.2C90.8 37 95 41.8 95 52V76C95 86.2 90.8 91 81.2 92.8" fill="none" stroke="url(#wine-g)" stroke-width="9" stroke-linecap="round"/><path d="M46.8 35.2C37.2 37 33 41.8 33 52V76C33 86.2 37.2 91 46.8 92.8M81.2 35.2C90.8 37 95 41.8 95 52V76C95 86.2 90.8 91 81.2 92.8" fill="none" stroke="url(#wine-sh)" stroke-width="9" stroke-linecap="round"/><path d="M54.5 50V78L78 64Z" fill="#FCE9EB" stroke="#FCE9EB" stroke-width="7" stroke-linejoin="round"/></svg>
